<svg width="48" height="48" viewBox="0 0 48 48" fill="none" xmlns="http://www.w3.org/2000/svg">
<path d="M1.5 11C1.5 9.61929 2.61929 8.5 4 8.5H44C45.3807 8.5 46.5 9.61929 46.5 11V25C46.5 26.3807 45.3807 27.5 44 27.5H4C2.61929 27.5 1.5 26.3807 1.5 25V11Z" stroke="#152C55" stroke-width="3"/>
<path d="M41 31C41 31 36.5 37.5 41 37.5C45.5 37.5 41 44 41 44" stroke="#152C55" stroke-width="3" stroke-linecap="round"/>
<path d="M8 31C8 31 12.5 37.5 8 37.5C3.5 37.5 8 44 8 44" stroke="#152C55" stroke-width="3" stroke-linecap="round"/>
<path d="M34 31C34 31 29.5 37.5 34 37.5C38.5 37.5 34 44 34 44" stroke="#152C55" stroke-width="3" stroke-linecap="round"/>
<path d="M15 31C15 31 19.5 37.5 15 37.5C10.5 37.5 15 44 15 44" stroke="#152C55" stroke-width="3" stroke-linecap="round"/>
<path d="M28 16L20 16" stroke="#FF498B" stroke-width="3" stroke-linecap="round"/>
<path d="M46 23L3 23" stroke="#152C55" stroke-width="3" stroke-linecap="round"/>
</svg>
