<svg width="48" height="48" viewBox="0 0 48 48" fill="none" xmlns="http://www.w3.org/2000/svg">
<path d="M30.5 40.5C30.5 41.6457 29.4516 43.1445 26.6771 44.4451C24.0221 45.6896 20.2488 46.5 16 46.5C11.7512 46.5 7.97793 45.6896 5.32294 44.4451C2.54839 43.1445 1.5 41.6457 1.5 40.5C1.5 39.3543 2.54839 37.8555 5.32294 36.5549C7.97793 35.3104 11.7512 34.5 16 34.5C20.2488 34.5 24.0221 35.3104 26.6771 36.5549C29.4516 37.8555 30.5 39.3543 30.5 40.5Z" stroke="#152C55" stroke-width="3"/>
<path d="M28.5 14.4258C28.5 18.1452 27.0024 24.8328 24.5213 30.6085C23.2856 33.4849 21.8479 36.0343 20.3084 37.8382C18.739 39.6773 17.2774 40.5 16 40.5C14.7226 40.5 13.261 39.6773 11.6916 37.8382C10.1521 36.0343 8.71437 33.4849 7.47872 30.6085C4.99763 24.8328 3.5 18.1452 3.5 14.4258C3.5 7.24438 9.13848 1.5 16 1.5C22.8615 1.5 28.5 7.24438 28.5 14.4258Z" fill="white" stroke="#152C55" stroke-width="3"/>
<circle cx="16" cy="14" r="4.5" stroke="#FF498B" stroke-width="3"/>
</svg>
