<svg width="48" height="48" viewBox="0 0 48 48" fill="none" xmlns="http://www.w3.org/2000/svg">
<path d="M16 11V17" stroke="#152C55" stroke-width="3" stroke-linecap="round"/>
<path d="M31 11V17" stroke="#152C55" stroke-width="3" stroke-linecap="round"/>
<mask id="path-3-inside-1_33_21" fill="white">
<path d="M13 2C12.4477 2 12 2.44772 12 3L12 8C12 10.2091 13.7909 12 16 12C18.2091 12 20 10.2091 20 8L20 3C20 2.44772 19.5523 2 19 2L13 2Z"/>
</mask>
<path d="M13 2C12.4477 2 12 2.44772 12 3L12 8C12 10.2091 13.7909 12 16 12C18.2091 12 20 10.2091 20 8L20 3C20 2.44772 19.5523 2 19 2L13 2Z" stroke="#FF498B" stroke-width="6" mask="url(#path-3-inside-1_33_21)"/>
<mask id="path-4-inside-2_33_21" fill="white">
<path d="M28 2C27.4477 2 27 2.44772 27 3L27 8C27 10.2091 28.7909 12 31 12C33.2091 12 35 10.2091 35 8L35 3C35 2.44772 34.5523 2 34 2L28 2Z"/>
</mask>
<path d="M28 2C27.4477 2 27 2.44772 27 3L27 8C27 10.2091 28.7909 12 31 12C33.2091 12 35 10.2091 35 8L35 3C35 2.44772 34.5523 2 34 2L28 2Z" stroke="#FF498B" stroke-width="6" mask="url(#path-4-inside-2_33_21)"/>
<path d="M5.18694 20.0715C5.5666 19.1224 6.48587 18.5 7.50813 18.5H40.4919C41.5141 18.5 42.4334 19.1224 42.8131 20.0715L44.4131 24.0715C45.0699 25.7137 43.8605 27.5 42.0919 27.5H5.90813C4.13947 27.5 2.93008 25.7137 3.58694 24.0715L5.18694 20.0715Z" stroke="#152C55" stroke-width="3"/>
<mask id="path-6-inside-3_33_21" fill="white">
<path d="M6 27C5.44771 27 5 27.4477 5 28L5 42C5 44.2091 6.79086 46 9 46C11.2091 46 13 44.2091 13 42L13 28C13 27.4477 12.5523 27 12 27L6 27Z"/>
</mask>
<path d="M6 27C5.44771 27 5 27.4477 5 28L5 42C5 44.2091 6.79086 46 9 46C11.2091 46 13 44.2091 13 42L13 28C13 27.4477 12.5523 27 12 27L6 27Z" stroke="#152C55" stroke-width="6" mask="url(#path-6-inside-3_33_21)"/>
<mask id="path-7-inside-4_33_21" fill="white">
<path d="M36 27C35.4477 27 35 27.4477 35 28L35 42C35 44.2091 36.7909 46 39 46C41.2091 46 43 44.2091 43 42L43 28C43 27.4477 42.5523 27 42 27L36 27Z"/>
</mask>
<path d="M36 27C35.4477 27 35 27.4477 35 28L35 42C35 44.2091 36.7909 46 39 46C41.2091 46 43 44.2091 43 42L43 28C43 27.4477 42.5523 27 42 27L36 27Z" stroke="#152C55" stroke-width="6" mask="url(#path-7-inside-4_33_21)"/>
</svg>
