<svg width="48" height="48" viewBox="0 0 48 48" fill="none" xmlns="http://www.w3.org/2000/svg">
<mask id="path-1-inside-1_14_21" fill="white">
<path fill-rule="evenodd" clip-rule="evenodd" d="M18.3541 9C17.5363 9 16.8008 9.4979 16.4971 10.2572L15 14H8C3.58172 14 0 17.5817 0 22V36C0 40.4183 3.58172 44 8 44H40C44.4183 44 48 40.4183 48 36V22C48 17.5817 44.4183 14 40 14H33L31.5029 10.2572C31.1992 9.4979 30.4637 9 29.6459 9H18.3541Z"/>
</mask>
<path d="M16.4971 10.2572L19.2825 11.3714V11.3714L16.4971 10.2572ZM15 14V17H17.0311L17.7854 15.1142L15 14ZM33 14L30.2146 15.1142L30.9689 17H33V14ZM31.5029 10.2572L28.7175 11.3714V11.3714L31.5029 10.2572ZM19.2825 11.3714C19.1307 11.751 18.763 12 18.3541 12V6C16.3095 6 14.471 7.24476 13.7117 9.14305L19.2825 11.3714ZM17.7854 15.1142L19.2825 11.3714L13.7117 9.14305L12.2146 12.8858L17.7854 15.1142ZM8 17H15V11H8V17ZM3 22C3 19.2386 5.23858 17 8 17V11C1.92487 11 -3 15.9249 -3 22H3ZM3 36V22H-3V36H3ZM8 41C5.23858 41 3 38.7614 3 36H-3C-3 42.0751 1.92487 47 8 47V41ZM40 41H8V47H40V41ZM45 36C45 38.7614 42.7614 41 40 41V47C46.0751 47 51 42.0751 51 36H45ZM45 22V36H51V22H45ZM40 17C42.7614 17 45 19.2386 45 22H51C51 15.9249 46.0751 11 40 11V17ZM33 17H40V11H33V17ZM28.7175 11.3714L30.2146 15.1142L35.7854 12.8858L34.2883 9.14305L28.7175 11.3714ZM29.6459 12C29.237 12 28.8693 11.751 28.7175 11.3714L34.2883 9.14305C33.529 7.24475 31.6905 6 29.6459 6V12ZM18.3541 12H29.6459V6H18.3541V12Z" fill="#152C55" mask="url(#path-1-inside-1_14_21)"/>
<circle cx="24" cy="29" r="6.5" stroke="#FF498B" stroke-width="3"/>
<path d="M40 21H35" stroke="#152C55" stroke-width="3" stroke-linecap="round"/>
</svg>
