<svg width="48" height="48" viewBox="0 0 48 48" fill="none" xmlns="http://www.w3.org/2000/svg">
<path d="M7.5 12C7.5 7.30558 11.3056 3.5 16 3.5H31C35.6944 3.5 39.5 7.30558 39.5 12V24.5H7.5V12Z" stroke="#152C55" stroke-width="3"/>
<path d="M12.5 18C12.5 16.6193 13.6193 15.5 15 15.5H19C20.3807 15.5 21.5 16.6193 21.5 18V24.5H12.5V18Z" stroke="#FF498B" stroke-width="3"/>
<path d="M25.5 18C25.5 16.6193 26.6193 15.5 28 15.5H32C33.3807 15.5 34.5 16.6193 34.5 18V24.5H25.5V18Z" stroke="#FF498B" stroke-width="3"/>
<path d="M1.5 27C1.5 25.6193 2.61929 24.5 4 24.5H44C45.3807 24.5 46.5 25.6193 46.5 27V37.5H1.5V27Z" stroke="#152C55" stroke-width="3"/>
<path d="M5 38V46" stroke="#152C55" stroke-width="3" stroke-linecap="round"/>
<path d="M43 38V46" stroke="#152C55" stroke-width="3" stroke-linecap="round"/>
<path d="M43 42H6" stroke="#152C55" stroke-width="3" stroke-linecap="round"/>
</svg>
