<svg width="48" height="48" viewBox="0 0 48 48" fill="none" xmlns="http://www.w3.org/2000/svg">
<path d="M12 15V23" stroke="#152C55" stroke-width="3" stroke-linecap="round"/>
<path d="M17 15V18" stroke="#152C55" stroke-width="3" stroke-linecap="round"/>
<path d="M6.42664 3.88419C6.48027 3.65896 6.68151 3.5 6.91304 3.5H17.0869C17.3185 3.5 17.5197 3.65895 17.5733 3.88419L19.9543 13.8842C20.0291 14.1984 19.7909 14.5 19.4679 14.5H4.5321C4.20913 14.5 3.97089 14.1984 4.04569 13.8842L6.42664 3.88419Z" stroke="#FF498B" stroke-width="3"/>
<path d="M1.5 27C1.5 25.6193 2.61929 24.5 4 24.5H20C21.3807 24.5 22.5 25.6193 22.5 27V35C22.5 36.3807 21.3807 37.5 20 37.5H4C2.61929 37.5 1.5 36.3807 1.5 35V27Z" stroke="#152C55" stroke-width="3"/>
<path d="M6 38V46" stroke="#152C55" stroke-width="3" stroke-linecap="round"/>
<path d="M18 38V46" stroke="#152C55" stroke-width="3" stroke-linecap="round"/>
</svg>
