<svg width="30" height="29" viewBox="0 0 30 29" fill="none" xmlns="http://www.w3.org/2000/svg">
<path d="M14.0489 1.679C14.3483 0.757691 15.6517 0.757693 15.9511 1.679L18.6484 9.98043C18.7822 10.3925 19.1662 10.6714 19.5994 10.6714H28.328C29.2968 10.6714 29.6995 11.911 28.9158 12.4804L21.8542 17.611C21.5037 17.8656 21.3571 18.317 21.4909 18.729L24.1882 27.0304C24.4876 27.9518 23.4331 28.7179 22.6494 28.1485L15.5878 23.0179C15.2373 22.7633 14.7627 22.7633 14.4122 23.0179L7.3506 28.1485C6.56689 28.7179 5.51241 27.9518 5.81176 27.0304L8.50906 18.729C8.64293 18.317 8.49627 17.8656 8.14579 17.611L1.08417 12.4804C0.300457 11.911 0.703234 10.6714 1.67196 10.6714H10.4006C10.8338 10.6714 11.2178 10.3924 11.3516 9.98043L14.0489 1.679Z" fill="#FFCC47"/>
</svg>
